<?xml version="1.0" standalone="no"?>
<!DOCTYPE svg PUBLIC "-//W3C//DTD SVG 20010904//EN"
 "http://www.w3.org/TR/2001/REC-SVG-20010904/DTD/svg10.dtd">
<svg version="1.0" xmlns="http://www.w3.org/2000/svg"
 width="7087.000000pt" height="7087.000000pt" viewBox="0 0 7087.000000 7087.000000"
 preserveAspectRatio="xMidYMid meet">
<metadata>
Created by potrace 1.11, written by Peter Selinger 2001-2013
</metadata>
<g transform="translate(0.000000,7087.000000) scale(0.100000,-0.100000)"
fill="#000000" stroke="none">
<path d="M40717 41044 c-280 -63 -500 -271 -578 -549 -29 -103 -32 -287 -6
-385 71 -270 297 -492 565 -557 92 -22 267 -21 357 2 148 37 270 110 375 222
130 139 190 281 198 475 5 137 -8 223 -49 326 -89 225 -278 395 -508 457 -84
23 -271 28 -354 9z"/>
<path d="M47877 41044 c-280 -63 -500 -271 -578 -549 -29 -103 -32 -287 -6
-385 71 -270 297 -492 565 -557 92 -22 267 -21 357 2 148 37 270 110 375 222
130 139 190 281 198 475 5 137 -8 223 -49 326 -89 225 -278 395 -508 457 -84
23 -271 28 -354 9z"/>
<path d="M38180 39650 c0 -715 -3 -1300 -7 -1300 -5 1 -24 26 -43 56 -70 112
-243 252 -405 328 -226 108 -519 166 -831 166 -577 0 -1082 -199 -1483 -585
-312 -301 -546 -727 -646 -1178 -51 -231 -60 -322 -60 -622 0 -300 9 -386 61
-625 152 -686 576 -1249 1159 -1543 414 -207 957 -280 1394 -186 116 25 271
79 365 126 180 90 369 247 463 385 l48 71 8 -94 c13 -168 37 -388 43 -404 5
-13 74 -15 594 -15 l588 0 -4 38 c-26 225 -28 431 -31 3490 l-4 3192 -604 0
-605 0 0 -1300z m-1008 -1860 c520 -49 872 -377 989 -918 27 -125 37 -414 20
-562 -42 -358 -198 -665 -434 -855 -343 -276 -868 -308 -1255 -76 -366 219
-573 675 -549 1211 21 461 198 816 510 1024 168 112 323 160 597 185 8 0 63
-4 122 -9z"/>
<path d="M57100 37590 l0 -3360 615 0 615 0 0 3360 0 3360 -615 0 -615 0 0
-3360z"/>
<path d="M49917 39768 c-4 -361 -6 -400 -25 -476 -72 -275 -246 -438 -522
-488 -42 -7 -145 -13 -232 -14 l-158 0 0 -545 0 -545 413 -2 412 -3 6 -1190
c6 -1312 2 -1240 70 -1452 150 -468 514 -774 1025 -864 298 -52 725 -28 969
54 l70 24 3 513 2 513 -32 -7 c-87 -18 -196 -27 -333 -27 -314 0 -455 79 -527
296 l-23 70 -3 1038 -3 1037 461 0 460 0 0 545 0 545 -460 0 -460 0 0 685 0
685 -554 0 -554 0 -5 -392z"/>
<path d="M54080 38919 c-294 -28 -540 -98 -790 -225 -413 -209 -713 -549 -850
-963 -39 -117 -74 -291 -62 -302 7 -6 1057 -229 1078 -229 7 0 15 21 19 48 11
78 62 223 102 292 52 90 191 227 277 275 180 100 394 140 614 115 211 -23 368
-88 482 -200 77 -76 121 -156 146 -267 37 -166 -7 -303 -121 -373 -72 -44
-161 -62 -789 -155 -421 -63 -688 -107 -776 -129 -576 -145 -964 -492 -1085
-971 -65 -256 -58 -528 22 -770 110 -338 381 -637 724 -799 502 -238 1185
-217 1642 51 166 97 331 245 431 386 l41 59 7 -49 c3 -26 7 -80 7 -118 1 -71
27 -316 37 -347 5 -17 41 -18 571 -18 l565 0 -6 33 c-16 85 -37 323 -46 522
-5 121 -10 753 -10 1405 0 769 -4 1215 -11 1270 -97 783 -599 1284 -1424 1425
-248 42 -569 56 -795 34z m1030 -2793 c0 -192 -21 -358 -61 -484 -56 -173
-115 -268 -239 -386 -164 -153 -403 -235 -688 -236 -363 -1 -602 207 -604 525
-1 165 44 280 151 386 73 73 181 133 291 163 36 10 306 55 600 101 294 45 538
83 543 84 4 0 7 -69 7 -153z"/>
<path d="M43970 38863 c-249 -19 -515 -91 -745 -203 -427 -208 -753 -542 -971
-995 -304 -632 -301 -1435 7 -2066 118 -241 240 -410 426 -590 261 -252 552
-415 898 -504 203 -52 340 -69 570 -69 292 1 505 41 727 139 212 93 370 214
494 379 l44 58 0 -220 c0 -121 -5 -266 -10 -323 -57 -559 -311 -886 -780
-1004 -151 -38 -256 -48 -454 -42 -214 5 -317 28 -472 101 -125 59 -201 114
-300 218 -122 127 -199 269 -244 449 l-21 85 -552 -146 c-303 -81 -553 -152
-555 -158 -6 -18 28 -169 59 -267 38 -116 141 -326 214 -435 441 -655 1248
-1000 2185 -931 573 42 1018 207 1385 512 415 346 680 897 744 1543 8 75 11
793 11 2253 l0 2143 -590 0 -590 0 0 -267 0 -266 -41 64 c-158 243 -474 436
-834 508 -179 35 -412 49 -605 34z m597 -1088 c438 -83 745 -395 845 -857 31
-146 31 -408 0 -555 -67 -310 -214 -542 -440 -695 -187 -126 -425 -188 -671
-175 -276 15 -506 108 -684 277 -102 97 -160 174 -216 286 -81 165 -118 318
-127 529 -14 314 72 601 244 816 156 194 383 329 631 373 104 19 320 20 418 1z"/>
<path d="M40260 36510 l0 -2280 615 0 615 0 0 2280 0 2280 -615 0 -615 0 0
-2280z"/>
<path d="M47420 36510 l0 -2280 615 0 615 0 0 2280 0 2280 -615 0 -615 0 0
-2280z"/>
<path d="M20910 32113 c-177 -91 -181 -342 -6 -432 64 -33 162 -35 221 -4 90
47 135 123 135 226 0 53 -5 71 -32 117 -46 75 -105 111 -195 117 -60 4 -74 1
-123 -24z"/>
<path d="M25670 32113 c-177 -91 -181 -342 -6 -432 64 -33 162 -35 221 -4 90
47 135 123 135 226 0 53 -5 71 -32 117 -46 75 -105 111 -195 117 -60 4 -74 1
-123 -24z"/>
<path d="M12040 30800 l0 -1310 170 0 170 0 0 263 0 262 120 120 c65 65 123
116 127 111 4 -4 132 -175 283 -379 l275 -372 218 -3 217 -2 -375 500 c-206
275 -375 503 -375 507 0 5 165 173 367 375 l368 368 -235 0 -235 1 -377 -383
-377 -383 -1 818 0 817 -170 0 -170 0 0 -1310z"/>
<path d="M31790 30800 l0 -1310 170 0 170 0 0 1310 0 1310 -170 0 -170 0 0
-1310z"/>
<path d="M21920 31637 c0 -235 -29 -314 -135 -367 -39 -19 -69 -25 -142 -28
l-93 -4 0 -154 0 -154 170 0 169 0 3 -552 c4 -623 2 -604 81 -720 78 -113 196
-174 358 -185 76 -5 225 8 265 24 11 4 14 35 14 148 l0 144 -88 -6 c-119 -8
-183 8 -232 57 -24 24 -41 53 -48 83 -8 32 -12 195 -12 526 l0 481 190 0 190
0 0 155 0 155 -190 0 -190 0 0 275 0 275 -155 0 -155 0 0 -153z"/>
<path d="M14418 31280 c-319 -58 -580 -312 -669 -650 -30 -116 -37 -329 -15
-457 53 -303 221 -529 488 -652 135 -63 200 -76 378 -75 125 1 170 5 233 22
172 47 346 167 438 304 53 78 114 207 103 217 -9 8 -287 103 -288 98 -1 -1
-19 -37 -40 -81 -50 -100 -117 -168 -212 -213 -146 -70 -331 -66 -483 8 -78
38 -173 130 -214 206 -29 54 -67 187 -67 235 l0 28 658 2 657 3 3 85 c12 318
-116 629 -320 773 -150 107 -273 146 -473 152 -71 2 -151 0 -177 -5z m254
-305 c131 -27 219 -83 284 -179 39 -58 74 -160 74 -217 l0 -39 -475 0 c-340 0
-475 3 -475 11 0 6 7 39 16 73 67 262 308 408 576 351z"/>
<path d="M16378 31280 c-319 -58 -580 -312 -669 -650 -30 -116 -37 -329 -15
-457 53 -303 221 -529 488 -652 135 -63 200 -76 378 -75 125 1 170 5 233 22
172 47 346 167 438 304 53 78 114 207 103 217 -9 8 -287 103 -288 98 -1 -1
-19 -37 -40 -81 -50 -100 -117 -168 -212 -213 -146 -70 -331 -66 -483 8 -78
38 -173 130 -214 206 -29 54 -67 187 -67 235 l0 28 658 2 657 3 3 85 c12 318
-116 629 -320 773 -150 107 -273 146 -473 152 -71 2 -151 0 -177 -5z m254
-305 c131 -27 219 -83 284 -179 39 -58 74 -160 74 -217 l0 -39 -475 0 c-340 0
-475 3 -475 11 0 6 7 39 16 73 67 262 308 408 576 351z"/>
<path d="M24335 31275 c-222 -46 -421 -232 -464 -433 -53 -249 85 -484 333
-566 27 -9 132 -35 235 -57 272 -59 342 -98 372 -212 32 -117 -45 -225 -186
-262 -164 -42 -357 17 -441 137 -34 48 -64 118 -64 148 0 11 -6 20 -13 20 -8
0 -76 -22 -153 -49 l-139 -49 2 -40 c4 -88 105 -244 207 -320 150 -110 266
-145 481 -146 173 -1 236 12 355 71 308 154 394 552 173 793 -99 107 -202 153
-486 216 -111 24 -222 54 -247 67 -85 44 -129 145 -100 232 18 54 81 119 143
146 69 31 205 33 287 5 81 -28 171 -121 196 -201 10 -33 19 -61 20 -63 1 -1
69 23 152 53 l150 57 -10 36 c-21 78 -82 177 -153 247 -121 121 -252 173 -460
180 -82 3 -142 0 -190 -10z"/>
<path d="M27245 31275 c-160 -36 -292 -120 -369 -235 -15 -23 -16 -20 -16 88
l0 112 -165 0 -165 0 0 -875 0 -875 170 0 170 0 0 568 c0 603 1 616 50 716 36
75 94 132 178 173 72 36 81 38 171 38 53 0 115 -6 138 -13 99 -30 183 -116
220 -225 16 -47 18 -115 21 -654 l3 -603 169 0 170 0 0 558 c0 462 3 568 15
621 31 131 109 230 223 284 62 29 75 32 167 32 89 0 107 -4 162 -29 104 -47
165 -129 192 -254 7 -36 11 -239 11 -632 l0 -580 171 0 170 0 -3 638 c-4 619
-4 639 -26 715 -65 233 -221 386 -442 433 -152 32 -352 3 -480 -69 -69 -39
-160 -124 -202 -190 -28 -44 -33 -48 -43 -32 -97 167 -193 242 -363 286 -87
22 -208 24 -297 4z"/>
<path d="M33268 31280 c-319 -58 -580 -312 -669 -650 -30 -116 -37 -329 -15
-457 53 -303 221 -529 488 -652 135 -63 200 -76 378 -75 125 1 170 5 233 22
172 47 346 167 438 304 53 78 114 207 103 217 -9 8 -287 103 -288 98 -1 -1
-19 -37 -40 -81 -50 -100 -117 -168 -212 -213 -146 -70 -331 -66 -483 8 -78
38 -173 130 -214 206 -29 54 -67 187 -67 235 l0 28 658 2 657 3 3 85 c12 318
-116 629 -320 773 -150 107 -273 146 -473 152 -71 2 -151 0 -177 -5z m254
-305 c131 -27 219 -83 284 -179 39 -58 74 -160 74 -217 l0 -39 -475 0 c-340 0
-475 3 -475 11 0 6 7 39 16 73 67 262 308 408 576 351z"/>
<path d="M18595 31274 c-11 -2 -45 -9 -75 -15 -127 -26 -280 -121 -356 -222
l-44 -59 0 131 0 131 -165 0 -165 0 0 -1220 0 -1220 170 0 170 0 0 457 0 456
35 -45 c141 -180 432 -267 708 -210 178 37 334 133 438 270 174 229 238 567
170 899 -38 182 -134 360 -254 468 -69 62 -207 136 -302 161 -58 15 -289 28
-330 18z m156 -308 c188 -40 326 -185 386 -406 24 -90 24 -309 -1 -400 -56
-209 -193 -355 -371 -399 -79 -20 -202 -16 -275 9 -171 58 -287 193 -341 397
-28 103 -30 278 -5 378 78 310 325 480 607 421z"/>
<path d="M30445 31274 c-11 -2 -45 -9 -75 -15 -127 -26 -280 -121 -356 -222
l-44 -59 0 131 0 131 -165 0 -165 0 0 -1220 0 -1220 170 0 170 0 0 457 0 456
35 -45 c141 -180 432 -267 708 -210 178 37 334 133 438 270 174 229 238 567
170 899 -38 182 -134 360 -254 468 -69 62 -207 136 -302 161 -58 15 -289 28
-330 18z m156 -308 c188 -40 326 -185 386 -406 24 -90 24 -309 -1 -400 -56
-209 -193 -355 -371 -399 -79 -20 -202 -16 -275 9 -171 58 -287 193 -341 397
-28 103 -30 278 -5 378 78 310 325 480 607 421z"/>
<path d="M20850 30365 l0 -875 170 0 170 0 0 875 0 875 -170 0 -170 0 0 -875z"/>
<path d="M25610 30365 l0 -875 170 0 170 0 0 875 0 875 -170 0 -170 0 0 -875z"/>
<path d="M34759 29967 c-143 -54 -207 -231 -133 -367 90 -166 325 -175 431
-17 79 118 39 292 -83 363 -55 32 -158 42 -215 21z"/>
</g>
</svg>
